<svg id="Calque_1" data-name="Calque 1" xmlns="http://www.w3.org/2000/svg" viewBox="0 0 2667.8 365.08"><defs><style>.cls-1{fill:#242424;}.cls-2{fill:#56c1cc;}</style></defs><title>XSL Labs SVG_V01</title><path class="cls-1" d="M-1582.48-346.7c-22.16,0-44.33.14-66.49,0-45.26-.34-88.77-30.5-102.37-71.38-2.54-7.63-3.47-15.9-4.3-24-.79-7.66,1.78-9.91,9.4-9.93q15.49,0,31,0c7.7,0,8.57,1.15,10.19,8.51,1.35,6.11,2.92,12.4,5.72,17.93,9.87,19.52,25.88,30,48,30,45.66.11,91.32.28,137-.06,29.11-.21,50.82-21.46,54-51.8,2.77-26.31-15.13-51.92-40.93-58a72.58,72.58,0,0,0-16.34-1.57c-42-.12-84,0-126-.09a101.32,101.32,0,0,1-98-75.05,102.05,102.05,0,0,1,84.51-128.55,105.76,105.76,0,0,1,14.46-.79c41-.06,82-.16,123,0,41.74.16,82.44,26.67,96.86,63.79,3.42,8.79,4.32,18.67,5.62,28.15.73,5.35-1.91,7.59-7.39,7.65-10.16.13-20.33,0-30.49.07-4.83,0-7.1-2.35-8.07-7a67.68,67.68,0,0,0-4.38-14.76c-8.87-19-24-29-45-29.06q-67.49-.23-135,0c-25.44.12-46,17.68-49.45,41.46-3.84,26.94,10.29,51.78,33.88,58.56a71.68,71.68,0,0,0,19.22,2.4c42.65.2,85.32,0,128,.14,50.91.17,93,34.12,104.25,83.81,13.56,59.87-28.07,120-88.92,128.37a143.36,143.36,0,0,1-18.42,1.15C-1540.15-346.61-1561.31-346.7-1582.48-346.7Z" transform="translate(2265.85 711.65)"/><path class="cls-1" d="M-2046.13-538.18q14.6,16.21,29.1,32.31l132.26,146.61c.78.87,1.9,1.63,2.25,2.64.88,2.56,2.14,5.36,1.73,7.81-.17,1-4.16,2-6.42,2-16,.17-32-.13-48,.2-6.65.14-11.44-2.42-15.63-7.19q-48.36-55-96.79-109.92-15-17.07-30.05-34.14a33.93,33.93,0,0,1-2.19-3.29c-11.92,14.62-23.15,28.41-34.38,42.2q-42.44,52.11-84.84,104.26c-4.36,5.36-9.42,8.3-16.7,8.09-14.16-.4-28.33,0-42.49-.22-2.54,0-5.05-1.48-7.58-2.27,1-2.85,1.2-6.28,3-8.47,14.17-17.46,28.63-34.68,43-52q122.37-147.18,244.65-294.43c4.44-5.36,9.21-7.89,16.23-7.69,14.15.39,28.32,0,42.49.21,2.27,0,5.87.79,6.47,2.22.79,1.88-.06,5.3-1.44,7.11-6.67,8.72-13.71,17.17-20.71,25.65q-55.32,67.08-110.7,134.12C-2043.93-541-2044.92-539.73-2046.13-538.18Z" transform="translate(2265.85 711.65)"/><path class="cls-1" d="M-1162.49-395.51h6.76q111.72,0,223.45,0a58.19,58.19,0,0,1,7,.26c6.42.77,11.16,5.44,11.4,11.85.3,8.15.31,16.33,0,24.48-.24,6.86-5.34,11.64-12.21,12.13-1.66.12-3.33.08-5,.08h-269.45c-13,0-17.31-4.34-17.31-17.37V-694.5c0-12.6,4.47-17,17.22-17h21.5c12.13,0,16.63,4.47,16.63,16.54q0,146.22,0,292.44Z" transform="translate(2265.85 711.65)"/><path class="cls-2" d="M28.7-477.82c7.38,8.6,15.33,15.95,21,24.78,18.62,29.13,10.57,69.22-17.48,90.82C19-352,4.18-346.69-12.68-346.74c-48.65-.15-97.3,0-145.95-.06-8.37,0-10.53-2.23-10.53-10.76q0-111.72,0-223.42c0-8.84,2.37-11.18,11.28-11.18q71.72,0,143.45,0c33.14.08,59.62,21.74,65.91,54.24,4.06,21-2.56,39.07-16.82,54.58C32.55-481,30.06-479.07,28.7-477.82Zm-161.18,97.65a27.67,27.67,0,0,0,3.17.4c39,0,78,.22,116.94-.18,21.8-.22,37.83-18.2,37.52-40.86C24.83-444,9.83-459.15-13-459.23c-22.49-.07-45,0-67.47,0-5.16,0-10.33.1-15.49,0-7.08-.18-10-3.19-10.07-10.14,0-3.33,0-6.66,0-10,0-9.12,2.42-11.57,11.5-11.57,26.49,0,53,.11,79.46-.06a33.52,33.52,0,0,0,32.45-41.34C13.84-548.1.75-559-15.55-559.1c-37.82-.19-75.63-.09-113.44-.08a29.46,29.46,0,0,0-3.49.42Z" transform="translate(2265.85 711.65)"/><path class="cls-2" d="M285.45-346.93c-16.83,0-33.68.43-50.49-.09-29.79-.93-59.19-26-65.38-55-3-14.05-1.63-15.78,12.49-15.78,4.67,0,9.34,0,14,0,3.94,0,6.05,1.69,6.77,5.72,3.79,21.24,16.93,32.3,38.29,32.32,30,0,60,.11,90,0,17.79-.09,32-12.17,35.66-29.78C370.37-427,362-444.67,346-451.33a49.05,49.05,0,0,0-17.95-3.35c-28-.34-56-.09-84-.17a68,68,0,0,1-67.91-60.21,68.57,68.57,0,0,1,51.66-75.3A48.42,48.42,0,0,1,239.14-592c31.17-.13,62.34-.47,93.49,0,28,.45,56.69,23.7,62.64,50.45,4.15,18.64,1.09,16.59-12.48,16.44-4.65,0-10.3,1.33-13.66-.82-3.12-2-3.88-7.77-5.53-11.94-5.35-13.59-16.13-21.27-30.75-21.32-30.83-.1-61.67-.15-92.5,0a32.46,32.46,0,0,0-32.26,28.41c-2.29,18.46,7.8,34.76,24.46,39a49.07,49.07,0,0,0,11.89,1q40.74.12,81.49,0c18,0,34.5,4.37,48.91,15.73,39.62,31.24,35.08,93.44-8.73,118.38-11.21,6.39-23.12,10-36.16,9.8-14.83-.2-29.67-.05-44.5-.05Z" transform="translate(2265.85 711.65)"/><path class="cls-2" d="M-338.47-438.76c-19.35-41.74-38.36-82.72-57.83-124.7-3.79,7.67-7.22,14.51-10.57,21.39q-35.83,73.64-71.65,147.28c-6.84,14.07-13.77,28.1-20.44,42.25-2,4.16-4.6,6-9.29,5.82-6.81-.3-13.66,0-20.49-.1-5.08-.06-6.67-2.28-4.81-7,1.46-3.71,3.35-7.25,5.12-10.83q53.07-107.72,106.08-215.48c4.14-8.44,9.76-13.08,19.52-12.12a80.69,80.69,0,0,0,14,0c8.55-.66,13.67,3.5,17.25,10.82,14.42,29.45,29,58.82,43.49,88.23q33.45,67.86,66.86,135.73a30.55,30.55,0,0,1,1.85,4.09c1.4,4.35,0,6.46-4.47,6.52-8.66.12-17.33-.05-26,.08-3.66.06-5.39-2.07-6.75-4.92-7.82-16.37-15.84-32.64-23.33-49.16-2.18-4.8-4.8-6.35-10-6.31-34.49.25-69,.13-103.47.13-8,0-8.88-1.49-5.22-8.84,2.45-4.91,5.41-9.64,7.28-14.77,2.44-6.71,7-8.28,13.57-8.22,24.32.24,48.65.09,73,.09Z" transform="translate(2265.85 711.65)"/><path class="cls-2" d="M-764.12-379.76h6.87q73.21,0,146.45,0a40.28,40.28,0,0,1,6.94.56c4.35.77,6.73,3.62,6.91,7.94.22,5.32.22,10.67,0,16s-3.29,8.16-8.61,8.4c-3.16.14-6.33,0-9.49,0H-789c-10.1,0-12.67-2.54-12.68-12.7q0-110,0-219.93c0-10.17,2.59-12.73,12.66-12.74,5,0,10-.07,15,0,6.41.1,9.68,3.44,9.86,9.94,0,1.33,0,2.66,0,4v198.44Z" transform="translate(2265.85 711.65)"/><path class="cls-1" d="M-2232.87-711.51c7.17,0,14.35.33,21.49-.1s12.39,2.42,17,7.65q32.68,37.14,65.57,74.11,9.28,10.49,18.55,21c4.23,4.82,4.28,6.69.35,11.68-7,8.9-14,17.8-21.06,26.65-4.25,5.32-7.64,5.39-12.22.31Q-2201.69-635-2260.15-699.7a19.92,19.92,0,0,1-2.47-3.12c-3.2-5.44-1.5-8.59,4.76-8.67C-2249.53-711.58-2241.2-711.51-2232.87-711.51Z" transform="translate(2265.85 711.65)"/></svg>