<?xml version="1.0" encoding="utf-8"?>
<!-- Generator: Adobe Illustrator 24.1.0, SVG Export Plug-In . SVG Version: 6.00 Build 0)  -->
<svg version="1.1" id="Calque_1" xmlns="http://www.w3.org/2000/svg" xmlns:xlink="http://www.w3.org/1999/xlink" x="0px" y="0px"
	 viewBox="0 0 2667.8 365.1" style="enable-background:new 0 0 2667.8 365.1;" xml:space="preserve">
<style type="text/css">
	.st0{fill:#FFFFFF;}
</style>
<path class="st0" d="M683.4,365c-22.2,0-44.3,0.1-66.5,0c-45.3-0.3-88.8-30.5-102.4-71.4c-2.5-7.6-3.5-15.9-4.3-24
	c-0.8-7.7,1.8-9.9,9.4-9.9c10.3,0,20.7,0,31,0c7.7,0,8.6,1.1,10.2,8.5c1.3,6.1,2.9,12.4,5.7,17.9c9.9,19.5,25.9,30,48,30
	c45.7,0.1,91.3,0.3,137-0.1c29.1-0.2,50.8-21.5,54-51.8c2.8-26.3-15.1-51.9-40.9-58c-5.4-1.1-10.9-1.7-16.3-1.6
	c-42-0.1-84,0-126-0.1c-45.9,0.1-86.1-30.7-98-75.1C509.1,75.2,540.8,18.9,595.1,3.8c4.5-1.3,9-2.2,13.7-2.8
	c4.8-0.6,9.6-0.9,14.5-0.8c41-0.1,82-0.2,123,0C788,0.3,828.7,26.8,843.1,64c3.4,8.8,4.3,18.7,5.6,28.2c0.7,5.3-1.9,7.6-7.4,7.7
	c-10.2,0.1-20.3,0-30.5,0.1c-4.8,0-7.1-2.3-8.1-7c-0.9-5.1-2.4-10-4.4-14.8c-8.9-19-24-29-45-29.1c-45-0.2-90-0.2-135,0
	c-25.4,0.1-46,17.7-49.4,41.5c-3.8,26.9,10.3,51.8,33.9,58.6c6.3,1.7,12.7,2.5,19.2,2.4c42.7,0.2,85.3,0,128,0.1
	c50.9,0.2,93,34.1,104.3,83.8c13.6,59.9-28.1,120-88.9,128.4c-6.1,0.8-12.3,1.2-18.4,1.1C725.7,365,704.5,365,683.4,365z"/>
<path class="st0" d="M219.7,173.5c9.7,10.8,19.4,21.6,29.1,32.3l132.3,146.6c0.8,0.9,1.9,1.6,2.3,2.6c0.9,2.6,2.1,5.4,1.7,7.8
	c-0.2,1-4.2,2-6.4,2c-16,0.2-32-0.1-48,0.2c-6.7,0.1-11.4-2.4-15.6-7.2c-32.2-36.7-64.5-73.3-96.8-109.9c-10-11.4-20-22.8-30.1-34.1
	c-0.8-1.1-1.5-2.2-2.2-3.3c-11.9,14.6-23.1,28.4-34.4,42.2C123.3,287.4,95,322.2,66.8,357c-4.4,5.4-9.4,8.3-16.7,8.1
	c-14.2-0.4-28.3,0-42.5-0.2c-2.5,0-5.1-1.5-7.6-2.3c1-2.9,1.2-6.3,3-8.5c14.2-17.5,28.6-34.7,43-52C127.6,204,209.1,105.8,290.6,7.7
	c4.4-5.4,9.2-7.9,16.2-7.7c14.2,0.4,28.3,0,42.5,0.2c2.3,0,5.9,0.8,6.5,2.2c0.8,1.9-0.1,5.3-1.4,7.1c-6.7,8.7-13.7,17.2-20.7,25.7
	c-36.9,44.7-73.8,89.4-110.7,134.1C221.9,170.7,220.9,171.9,219.7,173.5z"/>
<path class="st0" d="M1103.4,316.1h6.8c74.5,0,149,0,223.4,0c2.3-0.1,4.7,0,7,0.3c6.4,0.8,11.2,5.4,11.4,11.9
	c0.3,8.1,0.3,16.3,0,24.5c-0.2,6.9-5.3,11.6-12.2,12.1c-1.7,0.1-3.3,0.1-5,0.1h-269.5c-13,0-17.3-4.3-17.3-17.4V17.2
	c0-12.6,4.5-17,17.2-17h21.5c12.1,0,16.6,4.5,16.6,16.5c0,97.5,0,195,0,292.4L1103.4,316.1z"/>
<path class="st0" d="M2294.6,233.8c7.4,8.6,15.3,16,21,24.8c18.6,29.1,10.6,69.2-17.5,90.8c-13.2,10.2-28,15.5-44.9,15.5
	c-48.7-0.1-97.3,0-145.9-0.1c-8.4,0-10.5-2.2-10.5-10.8c0-74.5,0-149,0-223.4c0-8.8,2.4-11.2,11.3-11.2c47.8,0,95.6,0,143.4,0
	c33.1,0.1,59.6,21.7,65.9,54.2c4.1,21-2.6,39.1-16.8,54.6C2298.4,230.7,2295.9,232.6,2294.6,233.8z M2133.4,331.5
	c1,0.2,2.1,0.3,3.2,0.4c39,0,78,0.2,116.9-0.2c21.8-0.2,37.8-18.2,37.5-40.9c-0.3-23.2-15.3-38.3-38.1-38.4c-22.5-0.1-45,0-67.5,0
	c-5.2,0-10.3,0.1-15.5,0c-7.1-0.2-10-3.2-10.1-10.1c0-3.3,0-6.7,0-10c0-9.1,2.4-11.6,11.5-11.6c26.5,0,53,0.1,79.5-0.1
	c18.5-0.1,33.5-15.2,33.4-33.7c0-2.6-0.3-5.2-0.9-7.7c-3.5-15.8-16.6-26.7-32.9-26.8c-37.8-0.2-75.6-0.1-113.4-0.1
	c-1.2,0.1-2.3,0.2-3.5,0.4V331.5z"/>
<path class="st0" d="M2551.3,364.7c-16.8,0-33.7,0.4-50.5-0.1c-29.8-0.9-59.2-26-65.4-55c-3-14-1.6-15.8,12.5-15.8c4.7,0,9.3,0,14,0
	c3.9,0,6.1,1.7,6.8,5.7c3.8,21.2,16.9,32.3,38.3,32.3c30,0,60,0.1,90,0c17.8-0.1,32-12.2,35.7-29.8c3.6-17.5-4.8-35.1-20.8-41.8
	c-5.7-2.2-11.8-3.4-17.9-3.4c-28-0.3-56-0.1-84-0.2c-34.7,0.2-63.9-25.8-67.9-60.2c-4.4-34.6,17.8-67,51.7-75.3
	c3.7-1,7.5-1.5,11.3-1.6c31.2-0.1,62.3-0.5,93.5,0c28,0.5,56.7,23.7,62.6,50.5c4.1,18.6,1.1,16.6-12.5,16.4
	c-4.6,0-10.3,1.3-13.7-0.8c-3.1-2-3.9-7.8-5.5-11.9c-5.4-13.6-16.1-21.3-30.8-21.3c-30.8-0.1-61.7-0.2-92.5,0
	c-16.4,0-30.2,12.2-32.3,28.4c-2.3,18.5,7.8,34.8,24.5,39c3.9,0.8,7.9,1.2,11.9,1c27.2,0.1,54.3,0.1,81.5,0c18,0,34.5,4.4,48.9,15.7
	c39.6,31.2,35.1,93.4-8.7,118.4c-11.2,6.4-23.1,10-36.2,9.8C2581,364.6,2566.1,364.7,2551.3,364.7L2551.3,364.7z"/>
<path class="st0" d="M1927.4,272.9c-19.4-41.7-38.4-82.7-57.8-124.7c-3.8,7.7-7.2,14.5-10.6,21.4c-23.9,49.1-47.8,98.2-71.7,147.3
	c-6.8,14.1-13.8,28.1-20.4,42.3c-2,4.2-4.6,6-9.3,5.8c-6.8-0.3-13.7,0-20.5-0.1c-5.1-0.1-6.7-2.3-4.8-7c1.5-3.7,3.4-7.3,5.1-10.8
	c35.4-71.8,70.7-143.6,106.1-215.5c4.1-8.4,9.8-13.1,19.5-12.1c4.7,0.4,9.3,0.4,14,0c8.5-0.7,13.7,3.5,17.3,10.8
	c14.4,29.5,29,58.8,43.5,88.2c22.3,45.2,44.6,90.5,66.9,135.7c0.7,1.3,1.3,2.7,1.8,4.1c1.4,4.4,0,6.5-4.5,6.5
	c-8.7,0.1-17.3,0-26,0.1c-3.7,0.1-5.4-2.1-6.8-4.9c-7.8-16.4-15.8-32.6-23.3-49.2c-2.2-4.8-4.8-6.4-10-6.3
	c-34.5,0.3-69,0.1-103.5,0.1c-8,0-8.9-1.5-5.2-8.8c2.5-4.9,5.4-9.6,7.3-14.8c2.4-6.7,7-8.3,13.6-8.2c24.3,0.2,48.7,0.1,73,0.1
	L1927.4,272.9z"/>
<path class="st0" d="M1501.7,331.9h6.9c48.8,0,97.6,0,146.4,0c2.3,0,4.6,0.2,6.9,0.6c4.3,0.8,6.7,3.6,6.9,7.9c0.2,5.3,0.2,10.7,0,16
	s-3.3,8.2-8.6,8.4c-3.2,0.1-6.3,0-9.5,0h-173.9c-10.1,0-12.7-2.5-12.7-12.7c0-73.3,0-146.6,0-219.9c0-10.2,2.6-12.7,12.7-12.7
	c5,0,10-0.1,15,0c6.4,0.1,9.7,3.4,9.9,9.9c0,1.3,0,2.7,0,4L1501.7,331.9L1501.7,331.9z"/>
<path class="st0" d="M33,0.1c7.2,0,14.4,0.3,21.5-0.1s12.4,2.4,17,7.7c21.8,24.8,43.6,49.5,65.6,74.1c6.2,7,12.4,14,18.6,21
	c4.2,4.8,4.3,6.7,0.4,11.7c-7,8.9-14,17.8-21.1,26.7c-4.3,5.3-7.6,5.4-12.2,0.3c-39-43.2-78-86.4-117-129.5c-0.9-1-1.8-2-2.5-3.1
	C0,3.4,1.7,0.2,8,0.2C16.3,0.1,24.7,0.1,33,0.1z"/>
</svg>
